# xmcd CD database file
#
# Track frame offsets:
#	150
#	18576
#	30217
#	46474
#	75830
#	103125
#	123298
#	144459
#	173300
#	191148
#	219712
#	238496
#	270377
#	284767
#	308741
#
# Disc length: 4388 seconds
#
# Revision: 5
# Processed by: cddbd v1.5.2PL0 Copyright (c) Steve Scherf et al.
# Submitted via: CDex 1.51
#
DISCID=ce11220f
DTITLE=STEVE HACKETT - The Unauthorised Biography
DYEAR=1992
DGENRE=Progressive Rock
TTITLE0=Narnia
TTITLE1=Hackett to Pieces
TTITLE2=Don't Fall Away From Me
TTITLE3=Spectral Mornings
TTITLE4=The Steppes
TTITLE5=The Virgin - The Gypsey
TTITLE6=The Air-Conditioned Nightmare
TTITLE7=Cell 151
TTITLE8=Slogans
TTITLE9=Icarus Ascending
TTITLE10=Prayers And Dreams
TTITLE11=Star Of Sirius
TTITLE12=Hammer In The Sand
TTITLE13=Ace Of Wands
TTITLE14=Hoping Love Will Last
EXTD=YEAR: 1992
EXTT0=
EXTT1=
EXTT2=
EXTT3=
EXTT4=
EXTT5=
EXTT6=
EXTT7=
EXTT8=
EXTT9=
EXTT10=
EXTT11=
EXTT12=
EXTT13=
EXTT14=
PLAYORDER=
